<svg data-name="07_ic_folder_ost_default" xmlns="http://www.w3.org/2000/svg" width="46" height="46" viewBox="0 0 46 46">
    <defs>
        <clipPath id="tavxyyzkta">
            <path data-name="사각형 536" style="fill:none" d="M0 0h46v46H0z"/>
        </clipPath>
    </defs>
    <g data-name="그룹 594" style="clip-path:url(#tavxyyzkta)">
        <path data-name="패스 650" d="M7 18.279v-5.961a2.76 2.76 0 0 1 2.76-2.76h6.87a2.761 2.761 0 0 1 2.052.914l.663.738a2.761 2.761 0 0 0 2.052.914h16.016a2.76 2.76 0 0 1 2.76 2.76V22.9H7z" transform="translate(-.56 -.765)" style="fill:#dc9835"/>
        <path data-name="패스 651" d="M35.757 32.707H11.908a1.839 1.839 0 0 1-1.84-1.84V15.6a1.839 1.839 0 0 1 1.84-1.84h23.849A1.839 1.839 0 0 1 37.6 15.6v15.267a1.839 1.839 0 0 1-1.84 1.84" transform="translate(-.805 -1.1)" style="fill:#ddd"/>
        <path data-name="패스 652" d="M37.108 34.008H10.3a1.839 1.839 0 0 1-1.84-1.84V16.9a1.839 1.839 0 0 1 1.84-1.84h26.81a1.839 1.839 0 0 1 1.84 1.84v15.268a1.839 1.839 0 0 1-1.84 1.84" transform="translate(-.677 -1.205)" style="fill:#fefffc"/>
        <path data-name="패스 653" d="M38.735 40.047H8.123a2.76 2.76 0 0 1-2.76-2.76v-17.48a2.76 2.76 0 0 1 2.76-2.76h30.612a2.76 2.76 0 0 1 2.76 2.76v17.48a2.76 2.76 0 0 1-2.76 2.76" transform="translate(-.429 -1.364)" style="fill:#f7c74d"/>
        <path data-name="패스 654" d="M20.742 30.858a3.812 3.812 0 0 1-1.013 2.981 3.527 3.527 0 0 1-2.4.725 3.5 3.5 0 0 1-2.581-.837 4.055 4.055 0 0 1-.914-2.95 3.805 3.805 0 0 1 .815-2.593 3.341 3.341 0 0 1 2.651-1.012 3.374 3.374 0 0 1 2.743.97 4.28 4.28 0 0 1 .7 2.717m-1.6-.041a2.856 2.856 0 0 0-.439-1.675 1.675 1.675 0 0 0-1.461-.7 1.6 1.6 0 0 0-1.433.746 2.94 2.94 0 0 0-.4 1.625 3.486 3.486 0 0 0 .323 1.707 1.756 1.756 0 0 0 1.658.766 1.5 1.5 0 0 0 1.433-.746 3.651 3.651 0 0 0 .323-1.727" transform="translate(-1.107 -2.174)" style="fill:#fff"/>
        <path data-name="패스 655" d="M28.71 32.226a2.348 2.348 0 0 1-.546 1.577 1.747 1.747 0 0 1-1.389.64h-4.436v-1.274H26a.974.974 0 0 0 .618-.2.741.741 0 0 0 .286-.615q0-.912-1.129-.913h-1.85a1.989 1.989 0 0 1-1.4-.559 1.861 1.861 0 0 1-.6-1.424 2.111 2.111 0 0 1 .587-1.551 2.074 2.074 0 0 1 1.546-.6H28.3v1.233h-3.739a.755.755 0 0 0-.506.238.745.745 0 0 0-.256.562.835.835 0 0 0 .247.614.81.81 0 0 0 .6.248h2.034a1.994 1.994 0 0 1 1.492.554 2.017 2.017 0 0 1 .542 1.47" transform="translate(-1.754 -2.185)" style="fill:#fff"/>
        <path data-name="패스 656" d="M35.637 28.529H33.3v5.935h-1.453v-5.935h-2.3v-1.213h6.093z" transform="translate(-2.364 -2.185)" style="fill:#fff"/>
    </g>
</svg>
