<svg data-name="07_ic_folder_icod_default" xmlns="http://www.w3.org/2000/svg" width="46" height="46" viewBox="0 0 46 46">
    <defs>
        <clipPath id="rh315jyb5a">
            <path data-name="사각형 535" style="fill:none" d="M0 0h46v46H0z"/>
        </clipPath>
    </defs>
    <g data-name="그룹 593" style="clip-path:url(#rh315jyb5a)">
        <path data-name="패스 643" d="M7 18.279v-5.961a2.76 2.76 0 0 1 2.76-2.76h6.87a2.761 2.761 0 0 1 2.052.914l.663.738a2.761 2.761 0 0 0 2.052.914h16.016a2.76 2.76 0 0 1 2.76 2.76V22.9H7z" transform="translate(-.56 -.765)" style="fill:#dc9835"/>
        <path data-name="패스 644" d="M35.757 32.707H11.908a1.839 1.839 0 0 1-1.84-1.84V15.6a1.839 1.839 0 0 1 1.84-1.84h23.849A1.839 1.839 0 0 1 37.6 15.6v15.267a1.839 1.839 0 0 1-1.84 1.84" transform="translate(-.805 -1.1)" style="fill:#ddd"/>
        <path data-name="패스 645" d="M37.108 34.008H10.3a1.839 1.839 0 0 1-1.84-1.84V16.9a1.839 1.839 0 0 1 1.84-1.84h26.81a1.839 1.839 0 0 1 1.84 1.84v15.268a1.839 1.839 0 0 1-1.84 1.84" transform="translate(-.677 -1.205)" style="fill:#fefffc"/>
        <path data-name="패스 646" d="M38.735 40.047H8.123a2.76 2.76 0 0 1-2.76-2.76v-17.48a2.76 2.76 0 0 1 2.76-2.76h30.612a2.76 2.76 0 0 1 2.76 2.76v17.48a2.76 2.76 0 0 1-2.76 2.76" transform="translate(-.429 -1.364)" style="fill:#f7c74d"/>
        <path data-name="사각형 534" transform="translate(12.107 25.109)" style="fill:#fff" d="M0 0h1.676v7.127H0z"/>
        <path data-name="패스 647" d="M21.058 34.419h-2.769a2.712 2.712 0 0 1-.834-.132 2.242 2.242 0 0 1-1.263-1.262 4.865 4.865 0 0 1-.421-2.087 5.183 5.183 0 0 1 .376-2.037 2.424 2.424 0 0 1 1.174-1.333 2.833 2.833 0 0 1 1.21-.275h2.509v1.366h-2.607q-.636 0-.923.785a4.758 4.758 0 0 0-.224 1.6 3.179 3.179 0 0 0 .287 1.418 1.024 1.024 0 0 0 .932.684h2.554z" transform="translate(-1.262 -2.183)" style="fill:#fff"/>
        <path data-name="패스 648" d="M29.04 30.833a3.812 3.812 0 0 1-1.013 2.981 3.527 3.527 0 0 1-2.4.725 3.5 3.5 0 0 1-2.581-.837 4.055 4.055 0 0 1-.914-2.95 3.805 3.805 0 0 1 .815-2.593 3.341 3.341 0 0 1 2.653-1.012 3.374 3.374 0 0 1 2.743.97 4.28 4.28 0 0 1 .7 2.717m-1.6-.041a2.856 2.856 0 0 0-.439-1.675 1.675 1.675 0 0 0-1.461-.7 1.6 1.6 0 0 0-1.433.746 2.94 2.94 0 0 0-.4 1.625 3.486 3.486 0 0 0 .323 1.707 1.756 1.756 0 0 0 1.658.766 1.5 1.5 0 0 0 1.433-.746 3.651 3.651 0 0 0 .323-1.727" transform="translate(-1.77 -2.172)" style="fill:#fff"/>
        <path data-name="패스 649" d="M34.731 27.526a2.4 2.4 0 0 1 1.191 1.334 5.214 5.214 0 0 1 .4 2.1 4.966 4.966 0 0 1-.448 2.179 2 2 0 0 1-1.336 1.212 3.592 3.592 0 0 1-.743.071h-3.374v-7.13h3.19a2.876 2.876 0 0 1 1.121.234m.161 3.442a3.366 3.366 0 0 0-.26-1.425 1.066 1.066 0 0 0-1-.7h-1.752V32.9l1.864.009a.959.959 0 0 0 .905-.637 3.1 3.1 0 0 0 .242-1.308" transform="translate(-2.434 -2.183)" style="fill:#fff"/>
    </g>
</svg>
