<svg data-name="09_ic_tv_default" xmlns="http://www.w3.org/2000/svg" width="46" height="46" viewBox="0 0 46 46">
    <path data-name="사각형 618" style="fill:none" d="M0 0h46v46H0z"/>
    <g data-name="그룹 712">
        <g data-name="그룹 707" transform="translate(-490 -328)">
            <rect data-name="사각형 619" width="35.838" height="29.004" rx="5" transform="translate(495 339.668)" style="fill:#f8d26f"/>
            <path data-name="패스 694" d="m13455.267 7389.243 5.078 7.313 5.016-7.312" transform="translate(-12946.933 -7056.243)" style="stroke:#f0b419;stroke-linecap:round;stroke-linejoin:round;stroke-width:2px;fill:none"/>
            <rect data-name="사각형 620" width="29.678" height="22.295" rx="3" transform="translate(498.426 343.021)" style="fill:#f0b419"/>
            <rect data-name="사각형 621" width="24.136" height="16.348" rx="3" transform="translate(501.197 345.995)" style="fill:#fdf6e4"/>
            <path data-name="다각형 4" d="M4.823 2.58a2 2 0 0 1 3.354 0l2.815 4.33A2 2 0 0 1 9.315 10h-5.63a2 2 0 0 1-1.677-3.09z" transform="rotate(90 86.006 433.766)" style="fill:#f0b419"/>
        </g>
    </g>
</svg>
