<svg id="_13_ic_warning" data-name="13_ic_warning" xmlns="http://www.w3.org/2000/svg" width="24" height="24" viewBox="0 0 24 24">
    <defs>
        <clipPath id="clip-path">
            <path id="사각형_414" data-name="사각형 414" style="fill:none" d="M0 0h24v24H0z"/>
        </clipPath>
        <clipPath id="clip-path-3">
            <path id="사각형_437" data-name="사각형 437" style="fill:none" d="M0 0h17.605v15.888H0z"/>
        </clipPath>
        <style>
            
        </style>
    </defs>
    <g id="그룹_351" data-name="그룹 351" transform="translate(3 3.665)">
        <g id="그룹_350" data-name="그룹 350" transform="translate(0 .951)">
            <g id="그룹_349" data-name="그룹 349" style="clip-path:url(#clip-path-3)">
                <path id="사각형_436" data-name="사각형 436" transform="translate(1.75 10.212)" style="fill:#918e8e" d="M0 0h14.105v2.926H0z"/>
                <path id="패스_332" data-name="패스 332" d="M8.8.75a5.763 5.763 0 0 0-5.76 5.763v3.7h11.526v-3.7A5.763 5.763 0 0 0 8.8.75z" style="fill:#df7676"/>
                <path id="사각형_438" data-name="사각형 438" transform="translate(.75 11.675)" style="fill:#a5a5a5" d="M0 0h16.105v2.926H0z"/>
            </g>
        </g>
        <path id="패스_333" data-name="패스 333" d="M0 3.293A3.293 3.293 0 0 1 3.293 0" transform="rotate(6.02 1.337 25.415)" style="stroke-miterlimit:10;stroke-width:1.5px;stroke:#f59696;stroke-linecap:round;fill:none"/>
        <path id="패스_335" data-name="패스 335" d="M31.953 39.511a4.015 4.015 0 0 1 4.015-4.011" transform="translate(-27.165 -31.877)" style="stroke:#efb7b7;stroke-miterlimit:10;stroke-width:1.5px;fill:none"/>
        <path id="패스_334" data-name="패스 334" d="M3.293 3.293A3.293 3.293 0 0 0 0 0" transform="translate(11.725 .355)" style="stroke-miterlimit:10;stroke-width:1.5px;stroke:#f59696;stroke-linecap:round;fill:none"/>
    </g>
</svg>
