<svg data-name="13_img_error_bg" xmlns="http://www.w3.org/2000/svg" width="312" height="100" viewBox="0 0 312 100">
    <defs>
        <clipPath id="5o1s2q7t3a">
            <rect data-name="사각형 538" width="312" height="100" rx="14" transform="translate(440 197)" style="fill:#4592f8"/>
        </clipPath>
        <clipPath id="j3eja5vq9b">
            <path data-name="사각형 544" style="fill:none" d="M0 0h60v60H0z"/>
        </clipPath>
        <clipPath id="gopsnjqhyc">
            <path data-name="사각형 543" transform="translate(36.89 37.737)" style="fill:none" d="M0 0h5.429v16.852H0z"/>
        </clipPath>
    </defs>
    <g data-name="그룹 649" transform="translate(-1084 -197)">
        <g data-name="#Color/02/bg/notice/default" transform="translate(1084 197)">
            <rect data-name="사각형 53" width="312" height="100" rx="14" style="fill:#f1f7ff"/>
        </g>
        <rect data-name="사각형 53" width="312" height="100" rx="14" transform="translate(1084 197)" style="fill:#fff4ef"/>
        <g data-name="마스크 그룹 304" transform="translate(644)" style="clip-path:url(#5o1s2q7t3a)">
            <g data-name="그룹 600" transform="rotate(-33 764.238 259.018)" style="opacity:.46">
                <ellipse data-name="타원 33" cx="87" cy="31" rx="87" ry="31" transform="translate(624 232.154)" style="fill:#ffa981;opacity:.2"/>
            </g>
            <g data-name="그룹 603" transform="rotate(-45 711.571 240.763)" style="opacity:.38">
                <ellipse data-name="타원 33" cx="87" cy="37.869" rx="87" ry="37.869" transform="translate(624 232.154)" style="fill:#ffa981;opacity:.2"/>
            </g>
            <g data-name="그룹 604" transform="rotate(-115.98 693.748 229.995)" style="opacity:.4">
                <ellipse data-name="타원 33" cx="87" cy="37.869" rx="87" ry="37.869" transform="translate(624 232.154)" style="fill:#ffa981;opacity:.2"/>
            </g>
        </g>
    </g>
    <g data-name="그룹 358" transform="translate(-1104 -204)">
        <rect data-name="사각형 425" width="70" height="70" rx="13" transform="translate(1124 218)" style="fill:#f69c82"/>
        <g data-name="그룹 609">
            <g data-name="그룹 613" style="clip-path:url(#j3eja5vq9b)" transform="translate(1129 223)">
                <path data-name="패스 672" d="M32.41 11.277h-1.779a.465.465 0 0 1-.443-.334 2.195 2.195 0 0 0-2.028-1.636h-2.582a2.189 2.189 0 0 0-2.026 1.636.47.47 0 0 1-.444.334h-1.78a3.311 3.311 0 0 0-3.066 3.51v1.252a1.085 1.085 0 0 0 1.005 1.149h15.2a1.085 1.085 0 0 0 1-1.149v-1.252a3.31 3.31 0 0 0-3.057-3.51z" style="stroke:#fff;stroke-miterlimit:10;stroke-width:1.5px;fill:none"/>
                <path data-name="패스 673" d="M25.41 48.015H14.422a2 2 0 0 1-2-2V17.171a2 2 0 0 1 2-2h3.355" style="stroke:#fff;stroke-miterlimit:10;stroke-width:1.5px;fill:none"/>
                <path data-name="패스 674" d="M35.588 15.171h4.627a2 2 0 0 1 2 2v11.2" style="stroke:#fff;stroke-miterlimit:10;stroke-width:1.5px;fill:none"/>
                <path data-name="선 103" transform="translate(18.263 24.232)" style="stroke:#fff;stroke-miterlimit:10;stroke-width:1.5px;fill:none" d="M0 0h19.17"/>
                <path data-name="선 104" transform="translate(18.263 30.383)" style="stroke:#fff;stroke-miterlimit:10;stroke-width:1.5px;fill:none" d="M0 0h18.275"/>
                <path data-name="선 105" transform="translate(18.263 36.804)" style="stroke:#fff;stroke-miterlimit:10;stroke-width:1.5px;fill:none" d="M0 0h9.467"/>
                <path data-name="패스 675" d="M45.909 52.231h-11.89a3.051 3.051 0 0 1-2.619-4.619l5.945-9.917a3.05 3.05 0 0 1 5.232 0l5.945 9.917a3.051 3.051 0 0 1-2.616 4.619" style="stroke:#fff;stroke-miterlimit:10;stroke-width:1.5px;fill:none"/>
                <g data-name="그룹 612" style="isolation:isolate">
                    <g data-name="그룹 611">
                        <g data-name="그룹 610" style="clip-path:url(#gopsnjqhyc)">
                            <text data-name="!" transform="translate(36.891 49.285)" style="fill:#fff;font-size:13.476px;font-family:NotoSans-Bold,Noto Sans;font-weight:700"><tspan x="0" y="0">!</tspan></text>
                        </g>
                    </g>
                </g>
            </g>
        </g>
    </g>
</svg>
