<svg xmlns="http://www.w3.org/2000/svg" width="120" height="120" viewBox="0 0 120 120">
    <rect data-name="사각형 58" width="120" height="120" rx="14" style="fill:#f1f7ff"/>
    <path data-name="빼기 3" d="M-8039.733-3407.263A14.114 14.114 0 0 1-8040-3410v-92a13.908 13.908 0 0 1 4.1-9.9 13.908 13.908 0 0 1 9.9-4.1h92a14.051 14.051 0 0 1 3.6.467 122.523 122.523 0 0 0-41.324 11.011 121.623 121.623 0 0 0-18.059 10.386 120.454 120.454 0 0 0-15.847 13.178 118.4 118.4 0 0 0-13.275 15.623 115.757 115.757 0 0 0-10.347 17.722 112.717 112.717 0 0 0-10.476 40.349z" transform="translate(8040 3516)" style="fill:#f8fbff"/>
</svg>
