<svg xmlns="http://www.w3.org/2000/svg" width="32" height="32" viewBox="0 0 32 32">
    <path style="fill:none" d="M0 0h32v32H0z"/>
    <path data-name="패스 518" d="M126.2 33.589a1.041 1.041 0 0 0-.927.83l-.521 2.572a9.977 9.977 0 0 0-1.171.488l-2.2-1.449a1.041 1.041 0 0 0-1.3.146c-.788.79-1.648 1.582-2.473 2.409a1.043 1.043 0 0 0-.13 1.319l1.48 2.2a10.4 10.4 0 0 0-.488 1.188l-2.619.57a1.042 1.042 0 0 0-.83 1.026v3.4a1.042 1.042 0 0 0 .83 1.01l2.619.57a10.39 10.39 0 0 0 .488 1.188l-1.48 2.214a1.042 1.042 0 0 0 .13 1.3c.825.827 1.685 1.619 2.473 2.409a1.041 1.041 0 0 0 1.3.146L123.6 55.7a10.074 10.074 0 0 0 1.172.488l.5 2.556a1.041 1.041 0 0 0 1.025.846h3.45a1.041 1.041 0 0 0 1.025-.846l.5-2.556a10.077 10.077 0 0 0 1.172-.488l2.212 1.432a1.041 1.041 0 0 0 1.3-.146c.788-.79 1.648-1.582 2.473-2.409a1.042 1.042 0 0 0 .13-1.3l-1.48-2.214a10.406 10.406 0 0 0 .488-1.188l2.619-.57a1.042 1.042 0 0 0 .83-1.01v-3.4a1.042 1.042 0 0 0-.83-1.026l-2.619-.57a10.4 10.4 0 0 0-.488-1.188l1.48-2.2a1.043 1.043 0 0 0-.13-1.319c-.825-.827-1.686-1.619-2.473-2.409a1.041 1.041 0 0 0-1.3-.146l-2.2 1.449a9.972 9.972 0 0 0-1.171-.488l-.521-2.572a1.041 1.041 0 0 0-1.025-.83h-3.547z" transform="translate(-112.024 -30.587)" style="stroke:#1bc1db;stroke-width:1.5px;fill:none"/>
    <path data-name="패스 520" d="M126.2 33.589a1.041 1.041 0 0 0-.927.83l-.521 2.572a9.977 9.977 0 0 0-1.171.488l-2.2-1.449a1.041 1.041 0 0 0-1.3.146c-.788.79-1.648 1.582-2.473 2.409a1.043 1.043 0 0 0-.13 1.319l1.48 2.2a10.4 10.4 0 0 0-.488 1.188l-2.619.57a1.042 1.042 0 0 0-.83 1.026v3.4a1.042 1.042 0 0 0 .83 1.01l2.619.57a10.39 10.39 0 0 0 .488 1.188l-1.48 2.214a1.042 1.042 0 0 0 .13 1.3c.825.827 1.685 1.619 2.473 2.409a1.041 1.041 0 0 0 1.3.146L123.6 55.7a10.074 10.074 0 0 0 1.172.488l.5 2.556a1.041 1.041 0 0 0 1.025.846h3.45a1.041 1.041 0 0 0 1.025-.846l.5-2.556a10.077 10.077 0 0 0 1.172-.488l2.212 1.432a1.041 1.041 0 0 0 1.3-.146c.788-.79 1.648-1.582 2.473-2.409a1.042 1.042 0 0 0 .13-1.3l-1.48-2.214a10.406 10.406 0 0 0 .488-1.188l2.619-.57a1.042 1.042 0 0 0 .83-1.01v-3.4a1.042 1.042 0 0 0-.83-1.026l-2.619-.57a10.4 10.4 0 0 0-.488-1.188l1.48-2.2a1.043 1.043 0 0 0-.13-1.319c-.825-.827-1.686-1.619-2.473-2.409a1.041 1.041 0 0 0-1.3-.146l-2.2 1.449a9.972 9.972 0 0 0-1.171-.488l-.521-2.572a1.041 1.041 0 0 0-1.025-.83h-3.547z" transform="rotate(180 72.012 31.294)" style="stroke:#1bc1db;stroke-width:1.5px;fill:none"/>
    <path data-name="패스 519" d="M128.024 42.4a4.184 4.184 0 1 0 4.182 4.184 4.2 4.2 0 0 0-4.182-4.184z" transform="translate(-112.024 -30.587)" style="stroke:#1bc1db;stroke-width:1.5px;fill:none"/>
</svg>
