<svg xmlns="http://www.w3.org/2000/svg" width="32" height="32" viewBox="0 0 32 32">
    <path style="fill:none" d="M0 0h32v32H0z"/>
    <path data-name="패스 440" d="M10.884 26.156H2.7A1.9 1.9 0 0 1 .75 24.3V4.56A1.9 1.9 0 0 1 2.7 2.7H4" transform="translate(4.918 1.892)" style="stroke:#1bc1db;stroke-linecap:round;stroke-linejoin:round;stroke-width:1.5px;fill:none"/>
    <path data-name="패스 441" d="M17.662 2.7h1.3a1.9 1.9 0 0 1 1.948 1.857v10.33" transform="translate(4.243 1.892)" style="stroke:#1bc1db;stroke-linecap:round;stroke-linejoin:round;stroke-width:1.5px;fill:none"/>
    <path data-name="패스 442" d="M14.808 1.724h-1.342a.368.368 0 0 1-.335-.165A1.664 1.664 0 0 0 11.6.75H9.653a1.667 1.667 0 0 0-1.53.809.368.368 0 0 1-.335.165H6.446c-1.278 0-2.313.777-2.313 1.735v.619c0 .314.339.568.757.568h11.474c.419 0 .757-.254.757-.568v-.619c.001-.959-1.035-1.735-2.313-1.735z" transform="translate(4.783 1.97)" style="stroke:#1bc1db;stroke-linecap:round;stroke-linejoin:round;stroke-width:1.5px;fill:none"/>
    <path data-name="선 76" transform="translate(8.794 17.657)" style="stroke:#1bc1db;stroke-linecap:round;stroke-linejoin:round;stroke-width:1.5px;fill:none" d="M0 0h6.495"/>
    <path data-name="선 77" transform="translate(8.916 9.895)" style="stroke:#1bc1db;stroke-linecap:round;stroke-linejoin:round;stroke-width:1.5px;fill:none" d="M0 0h12.702"/>
    <path data-name="선 78" transform="translate(8.794 13.725)" style="stroke:#1bc1db;stroke-linecap:round;stroke-linejoin:round;stroke-width:1.5px;fill:none" d="M0 0h9.742"/>
    <path data-name="사각형 374" transform="translate(4.948 2)" style="fill:none" d="M0 0h24.103v28H0z"/>
    <path data-name="패스 486" d="M259.111 186.67a2.443 2.443 0 1 0 2.443 2.443 2.443 2.443 0 0 0-2.443-2.443zm-1.221 2.443a1.221 1.221 0 1 1 1.221 1.221 1.221 1.221 0 0 1-1.222-1.221z" transform="translate(-235.611 -164.613)" style="fill:#1bc1db;fill-rule:evenodd"/>
    <path data-name="패스 487" d="M121.866 46.668a.65.65 0 0 0-.65.65v1.028l-.081.033-.727-.727a.65.65 0 0 0-.919 0l-1.838 1.839a.65.65 0 0 0 0 .919l.727.727-.033.081h-1.028a.65.65 0 0 0-.65.65v2.6a.65.65 0 0 0 .65.65h1.028l.033.081-.727.727a.65.65 0 0 0 0 .919l1.839 1.838a.65.65 0 0 0 .919 0l.727-.727.081.033v1.028a.65.65 0 0 0 .65.65h2.6a.65.65 0 0 0 .65-.65V57.99l.081-.033.727.727a.65.65 0 0 0 .919 0l1.838-1.838a.65.65 0 0 0 0-.919l-.727-.727.033-.081h1.028a.65.65 0 0 0 .65-.65v-2.6a.65.65 0 0 0-.65-.65h-1.028l-.033-.081.727-.727a.65.65 0 0 0 0-.919l-1.838-1.838a.65.65 0 0 0-.919 0l-.727.727-.081-.033v-1.03a.65.65 0 0 0-.65-.65zm.65 2.138v-.838h1.3v.838a.65.65 0 0 0 .465.623 3.878 3.878 0 0 1 .74.307.65.65 0 0 0 .769-.112l.593-.593.919.919-.593.593a.65.65 0 0 0-.112.769 3.878 3.878 0 0 1 .307.741.65.65 0 0 0 .623.465h.838v1.3h-.838a.65.65 0 0 0-.623.465 3.878 3.878 0 0 1-.307.74.65.65 0 0 0 .112.769l.593.593-.919.919-.593-.593a.65.65 0 0 0-.769-.112 3.88 3.88 0 0 1-.74.307.65.65 0 0 0-.465.623v.838h-1.3v-.837a.65.65 0 0 0-.465-.623 3.879 3.879 0 0 1-.74-.307.65.65 0 0 0-.769.112l-.593.593-.919-.919.593-.593a.65.65 0 0 0 .112-.769 3.88 3.88 0 0 1-.307-.74.65.65 0 0 0-.623-.465h-.838v-1.3h.838a.65.65 0 0 0 .623-.465 3.878 3.878 0 0 1 .307-.74.65.65 0 0 0-.112-.769l-.593-.593.919-.919.593.593a.65.65 0 0 0 .769.112 3.876 3.876 0 0 1 .74-.307.65.65 0 0 0 .465-.625z" transform="translate(-99.667 -28.668)" style="fill:#1bc1db;fill-rule:evenodd"/>
</svg>
