<svg xmlns="http://www.w3.org/2000/svg" width="20" height="20" viewBox="0 0 20 20">
    <path style="fill:none" d="M0 0h20v20H0z"/>
    <path data-name="패스 131" d="M143.682 360.7v3.581a.827.827 0 0 1-.025.2.763.763 0 0 1-.74.616h-14.474a.761.761 0 0 1-.751-.683.607.607 0 0 1-.01-.138V360.7a.762.762 0 0 1 .756-.764.754.754 0 0 1 .534.224.771.771 0 0 1 .222.54v2.867h12.982V360.7a.762.762 0 0 1 .756-.764.754.754 0 0 1 .534.224.812.812 0 0 1 .217.545z" transform="translate(-125.683 -347.1)" style="fill:#141f40;opacity:.7"/>
    <path data-name="패스 132" d="m230.8 66.266-3.683 3.754c-.005.01-.015.015-.02.02a.861.861 0 0 1-.485.25c-.015 0-.03.005-.045.005a.531.531 0 0 1-.09.005l-.085-.005c-.015 0-.03-.005-.045-.005a.846.846 0 0 1-.485-.25l-.02-.02-3.683-3.754a.91.91 0 0 1 0-1.263.869.869 0 0 1 1.239 0l2.214 2.256v-8.266a.875.875 0 1 1 1.749 0v8.266L229.575 65a.869.869 0 0 1 1.239 0 .925.925 0 0 1-.015 1.263z" transform="translate(-216.477 -56.102)" style="fill:#141f40;opacity:.7"/>
</svg>
