<svg xmlns="http://www.w3.org/2000/svg" width="32" height="32" viewBox="0 0 32 32">
    <path style="fill:none" d="M0 0h32v32H0z"/>
    <path d="m187.652 66.174-9.6-7.2a3.2 3.2 0 0 0-3.84 0l-9.6 7.2a3.2 3.2 0 0 0-1.28 2.56v14.4a3.2 3.2 0 0 0 3.2 3.2h19.2a3.2 3.2 0 0 0 3.2-3.2v-14.4a3.2 3.2 0 0 0-1.28-2.56zm-12.32 10.56h-5.6v-6.4h5.6zm-5.6 8v-6.4h5.6v6.4zm7.2 0v-6.4h5.6v6.4zm10.4-1.6a1.6 1.6 0 0 1-1.6 1.6h-1.6v-6.4a1.6 1.6 0 0 0-1.6-1.6h-5.6v-6.4a1.6 1.6 0 0 0-1.6-1.6h-5.6a1.6 1.6 0 0 0-1.6 1.6v14.4h-1.6a1.6 1.6 0 0 1-1.6-1.6v-14.4a1.607 1.607 0 0 1 .64-1.28l9.6-7.2a1.6 1.6 0 0 1 1.92 0l9.6 7.2a1.607 1.607 0 0 1 .64 1.28z" transform="translate(-160.132 -56.334)" style="fill:#1bc1db"/>
</svg>
