<svg xmlns="http://www.w3.org/2000/svg" width="32" height="32" viewBox="0 0 32 32">
    <path style="fill:none" d="M0 0h32v32H0z"/>
    <path data-name="패스 444" d="M15.962 8.711a8.921 8.921 0 0 1-3.862 6.912v3.047H4.453v-3.145A7.985 7.985 0 0 1 .75 8.711 7.8 7.8 0 0 1 8.356.75a7.8 7.8 0 0 1 7.606 7.961z" transform="translate(7.644 2.082)" style="stroke:#1bc1db;stroke-linecap:round;stroke-linejoin:round;stroke-width:1.5px;fill:none"/>
    <path data-name="선 79" transform="translate(12.82 24.186)" style="stroke:#1bc1db;stroke-linecap:round;stroke-linejoin:round;stroke-width:1.5px;fill:none" d="M0 0h5.525"/>
    <path data-name="패스 445" d="M7.7 25.6a3.344 3.344 0 0 1-3.266-3.418h6.532A3.344 3.344 0 0 1 7.7 25.6" transform="translate(7.86 4.396)" style="fill:#1bc1db"/>
    <path data-name="패스 446" d="M4.931 7.641a2.675 2.675 0 0 1 2.612-2.733" transform="translate(7.889 2.531)" style="stroke:#1bc1db;stroke-linecap:round;stroke-linejoin:round;stroke-width:1.5px;fill:none"/>
    <path data-name="사각형 375" transform="translate(7.6 2)" style="fill:none" d="M0 0h16.8v28H0z"/>
</svg>
